<?xml version="1.0" encoding="UTF-8"?>
<svg id="Layer_2" data-name="Layer 2" xmlns="http://www.w3.org/2000/svg" viewBox="0 0 1108.03 832.16">
  <g id="Layer_1-2" data-name="Layer 1">
    <g>
      <path d="M570.93,242.77c13.19,5.16,25.85,10.1,38.49,15.08,62.68,24.68,125.34,49.4,188.07,73.97,3.64,1.42,4.97,3.05,4.96,7.12-.14,101.82-.11,203.65-.11,305.47,0,1.78,0,3.57,0,5.67-2.18,.1-3.8,.24-5.43,.24-73.49,.01-146.99-.03-220.48,.1-4.51,0-5.88-1.09-5.88-5.77,.13-132.15,.1-264.31,.11-396.46,0-1.6,.14-3.2,.25-5.42Z"/>
      <path d="M302.93,0h231.13c.1,1.65,.26,3.1,.26,4.55,.03,5.5,0,11,.01,16.49,.08,96.29,.13,192.58,.36,288.87,.01,4.7-1.38,6.87-5.8,8.6-73.4,28.72-146.72,57.64-220.06,86.51-1.8,.71-3.65,1.29-5.91,2.08V0Z"/>
      <path d="M534.19,650.32h-6.48c-72.82,0-145.64,0-218.47,0q-6.57,0-6.58-6.37c0-63.99,.04-127.98-.09-191.97,0-4.05,1.05-6.05,5.04-7.61,74.17-29.07,148.26-58.32,222.38-87.52,1.2-.47,2.47-.79,4.19-1.32v294.79Z"/>
      <path d="M570.67,.01h231.38V294.51c-2.37-.82-4.64-1.51-6.84-2.38-73.17-28.83-146.33-57.72-219.55-86.42-3.99-1.56-5.08-3.5-5.07-7.57,.12-64.14,.09-128.27,.09-192.41,0-1.79,0-3.59,0-5.72Z"/>
      <path d="M24.06,737.9c.28-6.26,.55-12.52,.87-19.74-8.58,3.24-16.26,6.14-24.79,9.36,0-7.69-.07-14.75,.09-21.81,.02-.85,1.09-2.09,1.96-2.44,7.22-2.88,14.51-5.6,22.41-8.6v23.02c2.37,.11,4.29,.25,6.21,.28,16.82,.24,33.67-.13,50.44,.84,17.71,1.03,30.72,11.82,34.3,27.16,2.04,8.73,1.18,17.33-3.77,24.99-1.94,3-1.53,4.56,.74,7.14,9.12,10.36,11.04,22.35,5.46,34.85-5.32,11.92-15.04,18.73-28.26,18.86-28.66,.28-57.32,.09-85.98,.07-.97,0-1.94-.19-3.36-.34-.1-1.92-.28-3.69-.28-5.47-.02-24.66,.07-49.32-.1-73.98-.02-3.71,.93-5.64,4.62-6.85,6.63-2.17,13.06-4.94,19.57-7.47,0,8.75,0,17.51,0,26.72,19.02,0,36.95,.35,54.86-.17,7.02-.21,11.49-6.5,11.39-13.5-.1-6.68-5.23-12.98-12-13.08-18.13-.27-36.26,.07-54.4,.16Zm.57,74.27c.97,.42,1.27,.67,1.58,.67,18.66,.03,37.33,.23,55.98-.03,7.56-.1,13.23-6.66,13.27-14.21,.04-7.75-5.56-14.36-13.55-14.53-17.99-.38-35.99-.19-53.99-.05-1.1,0-3.12,1.66-3.15,2.59-.24,8.61-.14,17.23-.14,25.55Z"/>
      <path d="M425.34,831.6h-23.88c0-1.95,0-3.73,0-5.51,0-19-.1-38,.08-56.99,.04-4.12-1.24-5.63-5.42-5.52-8.66,.23-17.33,.24-25.99,0-4.4-.12-5.87,1.58-5.84,5.85,.13,18.83,.05,37.66,.05,56.49,0,1.79,0,3.57,0,5.66h-24.01c0-1.95,0-3.72,0-5.49,0-18.83-.13-37.66,.09-56.49,.05-4.61-1.41-6.19-6.02-6.04-8.66,.29-17.33,.25-25.99,.01-4.13-.11-5.51,1.31-5.48,5.48,.18,18.83,.08,37.66,.08,56.49,0,1.81,0,3.61,0,6.28-7.62,0-14.87,.15-22.09-.2-.82-.04-2.14-2.89-2.15-4.44-.14-20.83-.1-41.66-.1-62.49,0-6.46,0-12.93,0-20.04,2.27,0,4.04,0,5.81,0,38.66,0,77.33-.01,115.99,0,14.51,0,24.81,8.77,25.3,23.32,.69,20.64,.18,41.32,.16,61.98,0,.46-.31,.91-.57,1.65Z"/>
      <path d="M957.04,776.98q1.38-13.45-11.01-13.45c-22,0-44-.07-66,.07-3.14,.02-4.77-.78-5.72-3.91-1.49-4.89-3.5-9.62-5.52-15.04,2.31,0,3.93,0,5.56,0,26.5,0,53-.01,79.5,0,16.63,.01,26.35,9.76,26.36,26.41,.01,19.98,0,39.96,0,60.51-2.01,.12-3.76,.32-5.5,.33-29.17,.02-58.33,.05-87.5,0-14.2-.02-24.26-9.83-24.74-23.97-.07-2.16-.06-4.33,0-6.5,.39-14.31,10.63-24.4,24.92-24.43,21.17-.05,42.33-.01,63.5-.01,1.97,0,3.94,0,6.16,0Zm-.04,35.74v-17.06c-20.27,0-40.07-.04-59.88,.01-13.78,.04-11.6-1.55-11.98,11.97-.12,4.23,1.38,5.44,5.46,5.41,20.82-.15,41.63-.07,62.45-.08,1.29,0,2.58-.16,3.95-.25Z"/>
      <path d="M255.89,831.91c-2.19,0-4.17,0-6.15,0-27.16,0-54.35-.65-81.48,.23-18.22,.59-30.45-10.58-29.09-29.44,.56-7.73,2.36-14.35,8.14-19.64,5.23-4.78,11.55-6.31,18.43-6.3,20.83,.03,41.66,0,62.49,0h5.13c.46-.71,.77-.97,.78-1.25,.63-14.95,.54-12.08-11.03-12.16-21.83-.14-43.66-.17-65.49,.08-4.11,.05-5.98-1.28-7.1-5.02-1.33-4.43-3.14-8.71-5.01-13.77,2.33,0,4.08,0,5.84,0,26.5,0,52.99,0,79.49,0,15.5,0,25.67,8.85,26,24.16,.44,20.31-.17,40.64-.34,60.96,0,.47-.26,.93-.61,2.13Zm-21.72-36.25c-2.26,0-4.05,0-5.83,0-18.32,0-36.65-.06-54.97,.02-13.06,.06-11.02-1.72-11.44,11.43-.15,4.6,1.3,6.02,5.93,5.97,20.49-.22,40.98-.09,61.47-.11,1.58,0,3.15-.22,4.85-.35v-16.95Z"/>
      <path d="M1002.34,831.64v-108.56h24.55v21.57h5.84c16.65,0,33.31-.03,49.96,.01,15.3,.04,25.28,10.08,25.32,25.38,.02,12.32,.04,24.65,0,36.97-.06,14.76-10.02,24.84-24.71,24.88-25.31,.06-50.63,.02-75.94,0-1.47,0-2.95-.15-5.01-.25Zm24.97-18.66c17.4,0,34.2-.11,50.98,.08,4.13,.05,5.51-1.29,5.44-5.42-.2-12.8-.23-25.62,0-38.42,.08-4.52-1.7-5.68-5.89-5.63-15.3,.17-30.6,.06-45.9,.08-1.45,0-2.9,.18-4.64,.3v49.01Z"/>
      <path d="M445.97,831.42v-108.42h24.18v21.32c2.29,.13,4.04,.31,5.8,.31,16.82,.02,33.64-.01,50.46,.02,15.14,.03,24.92,9.87,24.94,25.01,.02,12.82,.07,25.64,.03,38.47-.04,13.04-9.76,23.54-22.74,23.67-26.64,.27-53.29,.08-79.93,.06-.8,0-1.6-.25-2.74-.44Zm24.7-67.75v48.55c.47,.29,.6,.45,.74,.45,17.45,.1,34.9,.27,52.35,.13,1.19,0,3.37-2.3,3.39-3.56,.25-13.8,.27-27.61,0-41.41-.03-1.41-2.3-3.96-3.56-3.98-17.44-.26-34.89-.18-52.93-.18Z"/>
      <path d="M657.67,744.81h22.55c0,1.65,0,3.23,0,4.81,0,19.15,.02,38.31,0,57.46-.02,14.43-9.95,24.68-24.31,24.78-19.99,.14-39.98,.15-59.96,0-13.35-.1-23.61-9.72-23.77-22.61-.26-20.48-.07-40.97-.06-61.46,0-.81,.18-1.62,.32-2.78h21.88c.09,1.91,.27,3.83,.27,5.75,.02,18.65,.13,37.31-.07,55.96-.05,4.63,1.14,6.44,6.15,6.36,16.98-.29,33.98-.28,50.96,0,5,.08,6.17-1.77,6.12-6.4-.2-18.65-.08-37.31-.08-55.96,0-1.8,0-3.59,0-5.91Z"/>
      <path d="M760.35,831.48v-108.4h23.98c.09,1.99,.26,3.92,.26,5.85,.02,25.65,.11,51.3-.09,76.95-.03,4.41,1.22,5.68,5.62,5.62,16.15-.25,32.31,0,48.46-.17,3.39-.04,5.06,.97,6.08,4.26,1.61,5.2,3.75,10.24,5.87,15.9h-90.19Z"/>
    </g>
  </g>
</svg>